<svg viewBox="0 0 512 512" xmlns="http://www.w3.org/2000/svg"><g id="School_street_sign"><path d="m275.799 40.1671a28.0824 28.0824 0 0 0 -39.598 0l-193.9587 193.9588c-5.6333 5.6332-10.2423 16.7604-10.2423 24.727v193.1471a28.0823 28.0823 0 0 0 28 28h392a28.0823 28.0823 0 0 0 28-28v-193.1471c0-7.9666-4.609-19.0938-10.2423-24.727z" fill="#45617f"/><path d="m60 451.9991v-193.146a17.153 17.153 0 0 1 2.331-5.2364l193.669-193.6484 193.9629 193.96a17.229 17.229 0 0 1 2.0508 5.3491l-.0137 192.7217z" fill="#ffb115"/><g fill="#45617f"><path d="m378.721 351.73a10.5073 10.5073 0 0 0 11.3545-9.5635c2.4678-28.7348-6.6035-53.6621-26.961-74.0913a10.4893 10.4893 0 0 0 -7.44-3.0864s-42 0-42 .0427a10.4476 10.4476 0 0 0 -9.1709 5.3509c-8.9328 16.0473-21.8143 26.9814-38.26 32.7954-5.0731-32.1529-21.3217-58.2234-48.6655-77.4375a10.5952 10.5952 0 0 0 -6.0344-1.9073s-35 0-35.01.0411a10.4643 10.4643 0 0 0 -10.13 7.7246c-7.82 29.0117-25.5869 50.186-52.8076 62.935a10.4958 10.4958 0 0 0 -5.0586 13.9624c8.694 19.2963 46.7-16.2132 53.6775-24.4846l-19.6388 82.4825a3.523 3.523 0 0 0 3.4273 4.339h9.4913a214.3654 214.3654 0 0 0 -7.7787 41.2682c-.4617 5.1661 2.7478 10.2721 7.7724 11.5583a10.5281 10.5281 0 0 0 13.1026-9.2474 192.2678 192.2678 0 0 1 8.9945-43.5791h28.728a212.5755 212.5755 0 0 0 25.5442 48.6924 10.5046 10.5046 0 0 0 15.3734 1.9959c4.2984-3.6148 4.5318-10.1454 1.33-14.76a192.61 192.61 0 0 1 -19.6135-35.9288h13.1353a3.5231 3.5231 0 0 0 3.4273-4.3391l-26.7703-112.4323a94.4827 94.4827 0 0 1 26.6569 49.95c1.52 8.5592-.756 22.846 11.6313 23.1256a88.0981 88.0981 0 0 0 56.6459-32.9593v35.4826a160.9211 160.9211 0 0 0 -27.5519 82.2576 11.4029 11.4029 0 0 0 8.2844 11.7924c6.3117 1.5576 12.37-3.497 12.64-9.8486a140.3672 140.3672 0 0 1 22.819-70.6919 3.5375 3.5375 0 0 1 6.4833 1.4668 160.7517 160.7517 0 0 0 31.5917 75.21 10.4657 10.4657 0 0 0 8.3672 4.1529c8.8606.244 13.3982-10.7724 7.8142-17.5618a140.7823 140.7823 0 0 1 -28.448-78.8352v-35.9606c10.4611 14.05 15.06 30.367 13.4834 48.7266a10.4943 10.4943 0 0 0 9.5636 11.3618z"/><path d="m334.6741 257.9815c30.0045-.7606 29.9986-44.7438-.0007-45.5-30.0034.7605-29.998 44.7438.0007 45.5z"/><path d="m189.2444 216.3766c31.979 5.4165 41.0552-40.9981 9.5966-48.0883-31.9784-5.4163-41.0546 40.9983-9.5966 48.0883z"/></g></g></svg>